<?xml version="1.0" encoding="UTF-8" standalone="no"?>
<svg
   version="1.1"
   width="979.8432"
   height="547.09381"
   viewBox="0 0 979.8432 547.09381"
   id="svg55"
   sodipodi:docname="xcresults-logo-grayscale-inkscape.svg"
   inkscape:version="1.2.2 (b0a8486541, 2022-12-01)"
   xmlns:inkscape="http://www.inkscape.org/namespaces/inkscape"
   xmlns:sodipodi="http://sodipodi.sourceforge.net/DTD/sodipodi-0.dtd"
   xmlns="http://www.w3.org/2000/svg"
   xmlns:svg="http://www.w3.org/2000/svg">
  <defs
     id="defs59" />
  <sodipodi:namedview
     id="namedview57"
     pagecolor="#ffffff"
     bordercolor="#000000"
     borderopacity="0.25"
     inkscape:showpageshadow="2"
     inkscape:pageopacity="0.0"
     inkscape:pagecheckerboard="0"
     inkscape:deskcolor="#d1d1d1"
     showgrid="false"
     inkscape:zoom="0.534"
     inkscape:cx="489.70037"
     inkscape:cy="276.21723"
     inkscape:window-width="1920"
     inkscape:window-height="1011"
     inkscape:window-x="0"
     inkscape:window-y="0"
     inkscape:window-maximized="1"
     inkscape:current-layer="svg55" />
  <path
     fill="#313131"
     d="m 181.51028,518.53597 41.94087,-71.38817 -39.51157,-65.60411 h 25.15424 l 25.9126,47.90488 26.64524,-47.90488 h 24.60154 l -39.69151,65.23136 43.61182,71.76092 h -24.79434 l -30.1928,-54.24164 -29.62725,54.24164 z"
     id="path5"
     style="stroke-width:1.28535" />
  <rect
     width="108.66324"
     height="136.99228"
     x="182.15681"
     y="382.19794"
     fill="none"
     rx="0"
     ry="0"
     id="rect7"
     style="stroke-width:1.28535" />
  <path
     fill="#313131"
     d="m 363.60539,519.83417 q -16.40103,0 -29.17738,-5.59126 -12.7635,-5.59126 -21.61954,-15.37275 -8.84318,-9.78149 -13.41902,-22.36503 -4.56298,-12.58355 -4.56298,-26.74808 0,-15.46272 5.12853,-28.32904 5.12854,-12.85347 14.4473,-22.26221 9.31877,-9.4216 22.17224,-14.64011 12.86632,-5.2185 28.32905,-5.2185 10.06426,0 17.89203,2.05655 7.82776,2.0437 12.86632,4.56298 5.02571,2.51928 6.33676,4.01028 l -9.13882,18.63754 q -5.0257,-4.47301 -12.39074,-7.27507 -7.36504,-2.7892 -17.2365,-2.7892 -12.86633,0 -23.21337,6.33676 -10.33419,6.33676 -16.40103,17.89203 -6.05398,11.55527 -6.05398,27.39074 0,13.98458 5.21851,25.44988 5.2185,11.45244 15.37275,18.35475 10.16709,6.88946 24.70436,6.88946 8.00772,0 15.74551,-2.13368 7.73778,-2.14653 15.9383,-7.18509 l 6.14396,17.71209 q -2.41646,2.2365 -8.20052,4.75578 -5.7712,2.50643 -13.32905,4.19023 -7.54498,1.67095 -15.55269,1.67095"
     id="path9"
     style="stroke-width:1.28535" />
  <rect
     width="107.17223"
     height="140.52699"
     x="295.47302"
     y="379.96143"
     fill="none"
     rx="0"
     ry="0"
     id="rect11"
     style="stroke-width:1.28535" />
  <path
     fill="#313131"
     d="M 422.30718,518.53597 V 381.54369 h 31.13111 q 10.43702,0 20.21851,2.05655 9.78149,2.04371 17.4293,6.88946 7.63496,4.84576 12.10797,12.86633 4.47301,8.00771 4.47301,19.75578 0,13.59897 -6.33676,23.66324 -6.33676,10.06427 -19.19023,15.47558 l 32.60925,56.28534 H 490.71335 L 463.1298,466.72363 q -3.1748,0.17995 -7.73778,0.28278 -4.56299,0.09 -7.54499,0.09 h -5.21851 v 51.43958 z m 20.32134,-68.40617 h 13.22622 q 10.25707,0 16.491,-2.60925 6.24679,-2.60925 9.60154,-6.60668 3.35476,-4.01029 4.56299,-8.76607 1.22108,-4.75578 1.22108,-8.85604 0,-9.12596 -4.20309,-14.43445 -4.19023,-5.32133 -11.55527,-7.64781 -7.35218,-2.32648 -16.86375,-2.32648 h -12.48072 z"
     id="path13"
     style="stroke-width:1.28535" />
  <rect
     width="92.442154"
     height="136.99228"
     x="422.94089"
     y="382.19794"
     fill="none"
     rx="0"
     ry="0"
     id="rect15"
     style="stroke-width:1.28535" />
  <path
     fill="#313131"
     d="m 568.61823,520.39973 q -16.02827,0 -26.09254,-6.24679 -10.06427,-6.24679 -14.73008,-16.491 -4.65295,-10.25707 -4.65295,-21.81234 0,-13.97172 5.68123,-24.03599 5.68123,-10.06427 15.7455,-15.56555 10.06427,-5.50129 22.73779,-5.50129 20.32133,0 29.6401,11.28535 9.31877,11.27249 9.31877,30.28277 0,5.02571 -0.56556,10.43702 h -61.50385 q 2.05655,11.55527 8.29049,16.491 6.24678,4.93574 16.6838,4.93574 10.06427,0 15.84833,-1.86376 5.77121,-1.86375 9.49871,-3.7275 l 6.15682,14.35732 q -3.72751,2.41645 -11.55527,4.93574 -7.82777,2.51928 -20.50129,2.51928 m -24.42159,-51.63239 h 42.49357 q 0.1928,-12.10797 -5.39846,-16.58098 -5.59126,-4.47301 -14.53727,-4.47301 -9.31877,0 -15.1928,4.93573 -5.87404,4.93574 -7.36504,16.11826"
     id="path17"
     style="stroke-width:1.28535" />
  <rect
     width="83.12339"
     height="89.652954"
     x="523.77637"
     y="431.38818"
     fill="none"
     rx="0"
     ry="0"
     id="rect19"
     style="stroke-width:1.28535" />
  <path
     fill="#313131"
     d="m 654.53083,520.39973 q -5.96401,0 -12.39075,-1.11826 -6.42673,-1.11825 -11.74807,-2.89203 -5.30848,-1.77378 -8.09769,-3.81748 l 6.70951,-15.84833 q 3.16196,2.23651 9.58869,5.03856 6.43959,2.78921 15.93831,2.78921 8.39331,0 11.37532,-2.50643 2.982,-2.51928 2.982,-5.87404 0,-3.54755 -2.51928,-5.50128 -2.51928,-1.95373 -7.17223,-3.63753 -4.66581,-1.67095 -11.00257,-4.10026 -6.14396,-2.60925 -11.73522,-6.05398 -5.59126,-3.44473 -9.04885,-8.57327 -3.44473,-5.12853 -3.44473,-12.58355 0,-12.10796 9.31877,-18.5347 9.31877,-6.43959 24.60154,-6.43959 7.82776,0 15.1928,1.68381 7.36504,1.67095 11.09255,4.2802 l -7.27507,16.02828 q -2.2365,-2.2365 -7.36503,-4.10026 -5.11569,-1.86375 -12.19795,-1.86375 -13.23907,0 -13.23907,8.02056 0,3.90746 2.89203,6.24679 2.89203,2.32648 7.63496,3.90746 4.75578,1.58097 10.34704,3.81748 11.37532,4.473 17.42931,10.34704 6.05398,5.87404 6.05398,15.56555 0,8.75321 -4.65295,14.53728 -4.66581,5.7712 -12.4036,8.48329 -7.72494,2.69923 -16.86375,2.69923"
     id="path21"
     style="stroke-width:1.28535" />
  <rect
     width="66.156815"
     height="89.652954"
     x="622.94086"
     y="431.38818"
     fill="none"
     rx="0"
     ry="0"
     id="rect23"
     style="stroke-width:1.28535" />
  <path
     fill="#313131"
     d="m 737.65422,520.39973 q -12.85347,0 -19.56298,-5.41132 -6.70952,-5.39845 -9.04885,-14.34447 -2.32648,-8.94601 -2.32648,-19.75578 v -47.90488 h 20.12854 v 42.86632 q 0,9.88432 1.20822,16.02828 1.22108,6.15681 4.84576,9.04884 3.63753,2.87918 10.9126,2.87918 5.21851,0 9.96144,-2.87918 4.75578,-2.89203 7.93059,-8.02057 3.16195,-5.12853 3.16195,-11.46529 v -48.45758 h 19.94859 v 85.55269 h -16.40103 l -2.2365,-12.49357 q -4.66581,7.08226 -11.55527,10.71979 -6.90232,3.63754 -16.96658,3.63754"
     id="path25"
     style="stroke-width:1.28535" />
  <rect
     width="78.097679"
     height="87.416451"
     x="707.36249"
     y="433.62469"
     fill="none"
     rx="0"
     ry="0"
     id="rect27"
     style="stroke-width:1.28535" />
  <path
     fill="#313131"
     d="M 809.22234,518.53597 V 381.54369 h 19.94858 v 136.99228 z"
     id="path29"
     style="stroke-width:1.28535" />
  <rect
     width="19.948586"
     height="136.99228"
     x="809.86884"
     y="382.19794"
     fill="none"
     rx="0"
     ry="0"
     id="rect31"
     style="stroke-width:1.28535" />
  <path
     fill="#313131"
     d="M 862.34573,518.53597 V 449.3843 H 847.2429 v -16.40102 h 15.10283 v -34.84576 l 20.30848,-4.47301 v 39.31877 H 902.41 v 16.40102 h -19.75579 v 69.15167 z"
     id="path33"
     style="stroke-width:1.28535" />
  <rect
     width="55.167091"
     height="124.87146"
     x="847.87659"
     y="394.29306"
     fill="none"
     rx="0"
     ry="0"
     id="rect35"
     style="stroke-width:1.28535" />
  <path
     fill="#313131"
     d="m 945.27632,520.39973 q -5.96401,0 -12.39075,-1.11826 -6.42673,-1.11825 -11.74807,-2.89203 -5.30848,-1.77378 -8.09769,-3.81748 l 6.70952,-15.84833 q 3.16195,2.23651 9.58868,5.03856 6.43959,2.78921 15.93831,2.78921 8.39331,0 11.37532,-2.50643 2.982,-2.51928 2.982,-5.87404 0,-3.54755 -2.51928,-5.50128 -2.51928,-1.95373 -7.17223,-3.63753 -4.66581,-1.67095 -11.00257,-4.10026 -6.14396,-2.60925 -11.73522,-6.05398 -5.59126,-3.44473 -9.04884,-8.57327 -3.44473,-5.12853 -3.44473,-12.58355 0,-12.10796 9.31876,-18.5347 9.31877,-6.43959 24.60154,-6.43959 7.82777,0 15.1928,1.68381 7.36504,1.67095 11.09255,4.2802 l -7.27506,16.02828 q -2.23651,-2.2365 -7.36504,-4.10026 -5.11568,-1.86375 -12.19795,-1.86375 -13.23907,0 -13.23907,8.02056 0,3.90746 2.89203,6.24679 2.89203,2.32648 7.63496,3.90746 4.75579,1.58097 10.34705,3.81748 11.37532,4.473 17.4293,10.34704 6.05398,5.87404 6.05398,15.56555 0,8.75321 -4.65295,14.53728 -4.66581,5.7712 -12.4036,8.48329 -7.72494,2.69923 -16.86375,2.69923"
     id="path37"
     style="stroke-width:1.28535" />
  <rect
     width="66.156815"
     height="89.652954"
     x="913.68634"
     y="431.38818"
     fill="none"
     rx="0"
     ry="0"
     id="rect39"
     style="stroke-width:1.28535" />
  <path
     fill="#313131"
     d="m 413.32389,76.111823 c -19.20051,0 -34.8239,15.623392 -34.8239,34.823907 0,15.19409 34.8239,79.7018 34.8239,79.7018 0,0 34.82005,-64.50386 34.82005,-79.7018 0,-19.204371 -15.62339,-34.823907 -34.82005,-34.823907 m -0.004,49.565547 a 15.615681,15.615681 0 1 1 0,-31.231358 15.615681,15.615681 0 0 1 0,31.231358 m 0.25321,-75.681228 c -15.5784,0 -29.38303,7.131105 -38.79177,18.12982 l 8.61311,7.982005 c 7.25064,-8.679949 18.01285,-14.331619 30.18252,-14.331619 12.11696,0 22.83804,5.602827 30.08354,14.215937 l 8.54113,-8.066837 C 442.7879,57.041129 429.05397,49.994857 413.57325,49.994857"
     id="path41"
     style="stroke-width:1.28535" />
  <path
     fill="#313131"
     d="m 413.57325,25.03856 c -22.79691,0 -43.23007,10.11311 -57.20822,26.026991 l 8.62596,7.993573 c 11.82262,-13.591259 29.19409,-22.237788 48.58226,-22.237788 19.24422,0 36.50128,8.528277 48.31619,21.951156 l 8.5527,-8.07455 C 456.47171,34.999999 436.18636,25.03856 413.57325,25.03856"
     id="path43"
     style="stroke-width:1.28535" />
  <path
     fill="#313131"
     d="m 413.57325,0 c -30.0437,0 -56.98843,13.228791 -75.54755,34.074549 l 8.6311,7.992288 c 16.4036,-18.525707 40.28535,-30.282776 66.92031,-30.282776 26.40617,0 50.10539,11.564267 66.49614,29.821336 l 8.5527,-8.07455 C 470.07453,13 443.34703,0 413.57325,0 m 192.53598,231.47943 -6.80591,13.94987 -71.32647,-44.62982 31.73007,-92.13367 34.991,23.00771 h 25.59383 L 557.3753,92.691514 487.36502,149.36118 450.33675,128.32776 c -1.38818,3.77635 -3.03856,7.60925 -4.85476,11.84319 l 36.67738,20.21722 -31.70052,95.03727 -68.41131,-37.96915 14.79178,-44.38303 a 766.08481,766.08481 0 0 1 -8.12468,-16.51928 l -22.32648,66.97429 86.53599,47.98972 69.6311,-57.35861 84.00643,52.36118 11.40231,-32.9126 z m -86.38303,-31.73779 -57.39974,47.28406 28.16196,-84.49229 57.40359,-47.28277 z"
     id="path45"
     style="stroke-width:1.28535" />
  <path
     fill="#313131"
     d="m 634.86887,152.45501 a 8.1735216,8.1735216 0 0 1 8.16581,8.16452 v 44.40874 a 8.1735216,8.1735216 0 0 1 -8.16452,8.16581 h -44.40874 a 8.1735216,8.1735216 0 0 1 -8.16581,-8.16452 v -44.41003 a 8.1735216,8.1735216 0 0 1 8.16452,-8.16581 z m 0,-12.24679 h -44.40874 a 20.412596,20.412596 0 0 0 -20.41131,20.41131 v 44.41131 a 20.412596,20.412596 0 0 0 20.41131,20.41131 h 44.40874 a 20.412596,20.412596 0 0 0 20.41388,-20.41131 v -44.41002 a 20.412596,20.412596 0 0 0 -20.41259,-20.4126"
     id="path47"
     style="stroke-width:1.28535" />
  <path
     fill="#313131"
     d="m 607.02312,162.94601 h 26.04627 v 19.14781 H 607.02312 Z M 82.467864,369.99999 c -34.376606,0 -62.352183,27.96915 -62.352183,62.35218 0,13.95116 4.772493,27.67224 13.453727,38.64653 l 48.898456,61.48072 48.922876,-61.51028 a 62.520563,62.520563 0 0 0 13.43188,-38.62083 c -0.004,-34.37917 -27.97044,-62.34832 -62.354756,-62.34832 m 0,85.59511 c -12.81491,0 -23.244216,-10.42931 -23.244216,-23.24293 0,-12.82005 10.429306,-23.24421 23.244216,-23.24421 12.818765,0 23.242926,10.42416 23.242926,23.24421 0,12.81362 -10.424161,23.24293 -23.242926,23.24293"
     id="path49"
     style="stroke-width:1.28535" />
  <path
     fill="#313131"
     d="m 83.429303,541.76348 c 27.447297,-0.0861 49.544987,-3.81748 49.544987,-8.41388 0,-3.83291 -15.38561,-7.06684 -36.422879,-8.08355 l 4.232649,-5.32134 c 36.73136,1.38818 64.15424,6.86247 64.15424,13.40489 0,7.58997 -36.92159,13.74421 -82.467866,13.74421 C 36.924163,547.09381 0,540.93828 0,533.3496 0,526.80718 27.421593,521.33289 64.152954,519.94471 l 4.233933,5.32134 c -21.03856,1.01671 -36.424163,4.25064 -36.424163,8.08355 0,4.59511 22.097685,8.32776 49.546271,8.41388 z"
     id="path51"
     style="stroke-width:1.28535" />
</svg>
